<svg xmlns="http://www.w3.org/2000/svg" viewBox="0 0 310 318"><g fill="none" fill-rule="evenodd" transform="translate(-42 -45)"><path fill="#F0F5F7" d="M221.695 343.583c72.463 30.535 60.604-66.986 111.684-171.978 51.08-104.993-52.238-50.05-171.978-111.685C41.66-1.715 90.308 142.586 49.716 231.9s99.516 81.15 171.98 111.684z"/><path fill="#FCCD5E" d="M159.496 193.23l-24.524 78.032c4.274 7.264 23.802 10.896 58.585 10.896 41.711-.655 48.638-5.078 54.586-10.27l-26.445-78.658c-14.395 1.55-24.856 2.325-31.383 2.325-6.526 0-16.8-.775-30.82-2.325z" opacity=".716"/><ellipse cx="191.5" cy="271.5" fill="#FCC94F" opacity=".716" rx="56.5" ry="10.5"/><path fill="#FFF" d="M263.731 268.775c-7.089 2.516-11.889 2.516-14.4 0-3.766-3.775-7.765-8.678-10.827-5.684-2.042 1.995-3.063 3.89-3.063 5.684-.126-6.783-2.349-10.08-6.67-9.892-3.803.166-5.493 2.74-5.071 7.723a2 2 0 01-1.824 2.162 2 2 0 01-.169.007h-34.208a2 2 0 01-2-2 2 2 0 01.051-.451c2.482-10.717-.29-15.812-8.319-15.287-7.372.74-9.597 5.755-6.678 15.047-1.35-8.856-4.833-12.808-10.447-11.857-5.614.952-6.769 4.904-3.464 11.857-2.494-8.058-6.643-9.686-12.446-4.886-11 6.68-21.398 9.205-31.196 7.577 14.598 9.081 41.183 13.622 79.755 13.622 37.909 0 61.567-4.54 70.976-13.622z"/><path fill="#92A9FC" fill-rule="nonzero" d="M161.442 362.412l-17.23-14.19 9.83-20.81 22.17 20.52-.5.586a105.638 105.638 0 01-13.768 13.5l-.502.394zm-15.256-14.632l15.296 12.576a106.181 106.181 0 0012.534-12.287l-19.45-17.998-8.38 17.709zm-39.993-67.23a8 8 0 118.016-8 8.008 8.008 0 01-8.016 8zm0-14.445a6.453 6.453 0 106.453 6.453 6.46 6.46 0 00-6.453-6.46v.007zm-61.37-72.72v-19l20 2.895-20 16.104zm1.578-17.166v13.855l14.578-11.75L46.4 176.22zm38.616-39.648a3.68 3.68 0 01-2.475-.934c-.656-.599-1.025-1.41-1.025-2.256v-1.464c-.063-1.175.59-2.287 1.697-2.892 1.107-.605 2.49-.605 3.598 0s1.76 1.717 1.697 2.892v1.464c0 1.759-1.562 3.186-3.492 3.19zm0-6.328c-1.019 0-1.845.753-1.845 1.682v1.463c-.046.627.294 1.224.883 1.55a2 2 0 001.916 0c.588-.326.929-.923.883-1.55v-1.463c0-.926-.821-1.678-1.837-1.682zM59.569 272.46h-9.977v-10h10l-.023 10zm-8.476-1.525h6.951v-6.951h-6.928l-.023 6.951zm226.993-168.87l-17.23-14.191 9.83-20.81 22.17 20.52-.5.587a105.638 105.638 0 01-13.768 13.5l-.502.394zM262.83 87.432l15.296 12.577A106.181 106.181 0 00290.66 87.72l-19.45-17.998-8.38 17.709zm39.175 66.118a8 8 0 118.016-8 8.008 8.008 0 01-8.016 8zm0-14.445a6.453 6.453 0 106.453 6.453 6.46 6.46 0 00-6.453-6.46v.007zm27.217 116.14v-19l20 2.896-20 16.105zm1.578-17.165v13.856l14.578-11.75-14.578-2.106zm-42.832 44.136a3.68 3.68 0 01-2.475-.934c-.656-.599-1.025-1.41-1.025-2.257v-1.463c-.062-1.176.59-2.287 1.697-2.892a3.793 3.793 0 013.598 0c1.108.605 1.76 1.716 1.697 2.892v1.463c0 1.76-1.562 3.187-3.492 3.191zm0-6.329c-1.019 0-1.845.754-1.845 1.683v1.463c-.046.626.295 1.224.883 1.55a2 2 0 001.916 0c.589-.326.93-.924.883-1.55v-1.464c0-.926-.82-1.678-1.837-1.682zm63.355-117.008h-9.977v-10h10l-.023 10zm-8.476-1.525h6.952v-6.95h-6.929l-.023 6.95z"/><g fill-rule="nonzero"><path fill="#D6DCE7" d="M252.5 137l-42-42h-93v174h135z"/><path fill="#FFF" d="M147.5 164h75a3 3 0 100-6h-75a3 3 0 100 6zm0-24h30a3 3 0 100-6h-30a3 3 0 100 6zm75 42h-75a3 3 0 100 6h75a3 3 0 100-6zm0 24h-75a3 3 0 100 6h75a3 3 0 100-6zm0 24h-75a3 3 0 100 6h75a3 3 0 100-6z"/><path fill="#BEC7CF" d="M210.5 95v42h42z"/><g transform="translate(210 197)"><circle cx="36.5" cy="36" r="36" fill="#42BF8A"/><path fill="#FFF" d="M56.213 18.537a2.996 2.996 0 00-4.176.75l-16.788 24.12-11.847-9.726a2.997 2.997 0 00-4.221.417 2.994 2.994 0 00.417 4.221l14.358 11.787a3.008 3.008 0 002.313.654 3.016 3.016 0 002.052-1.257l18.642-26.787a3.006 3.006 0 00-.75-4.179z"/></g></g><path fill="#FCCD5E" fill-rule="nonzero" d="M240.267 107.968h-3.653a1 1 0 01-1-1 1 1 0 01.11-.457l3.11-6.054a1 1 0 00-.433-1.346 1 1 0 00-.457-.111H228.6a1 1 0 00-.946.676l-4.599 13.428a1 1 0 00.946 1.324h4.502a1 1 0 011 1 1 1 0 01-.051.315l-1.667 5.016a1 1 0 00.633 1.265 1 1 0 001.04-.26l11.534-12.107a1 1 0 00-.034-1.414 1 1 0 00-.69-.275zm-34.466-19.726h-7.288a1 1 0 01-1-1 1 1 0 01.11-.456l5.306-10.33a1 1 0 00-.432-1.345 1 1 0 00-.457-.111h-14.923a1 1 0 00-.946.676l-7.117 20.782a1 1 0 00.622 1.27 1 1 0 00.324.054h7.976a1 1 0 011 1 1 1 0 01-.051.316l-3.342 10.056a1 1 0 00.633 1.264 1 1 0 001.04-.259l19.27-20.227a1 1 0 10-.725-1.69z"/></g></svg>